HIERARCHY
ROOT Hips
{
  OFFSET -307.894 89.2041 297.617
  CHANNELS 6 Xposition Yposition Zposition Zrotation Xrotation Yrotation
  JOINT ToSpine
  {
    OFFSET -0.0105055 1.38907 -7.13956
    CHANNELS 3 Zrotation Xrotation Yrotation
    JOINT Spine
    {
      OFFSET 0.0105055 10 1
      CHANNELS 3 Zrotation Xrotation Yrotation
      JOINT Spine1
      {
        OFFSET 0 12 1.60637
        CHANNELS 3 Zrotation Xrotation Yrotation
        JOINT Neck
        {
          OFFSET 0 27 2.26658
          CHANNELS 3 Zrotation Xrotation Yrotation
          JOINT Head
          {
            OFFSET 0 9 2.12705
            CHANNELS 3 Zrotation Xrotation Yrotation
            End Site
            {
              OFFSET 0 11 2
            }
          }
        }
        JOINT LeftShoulder
        {
          OFFSET 8 19.6109 2.86452
          CHANNELS 3 Zrotation Xrotation Yrotation
          JOINT LeftArm
          {
            OFFSET 12 1 0.681055
            CHANNELS 3 Zrotation Xrotation Yrotation
            JOINT LeftForeArm
            {
              OFFSET 19 0 -1.52608
              CHANNELS 3 Zrotation Xrotation Yrotation
              JOINT LeftHand
              {
                OFFSET 23 0 0
                CHANNELS 3 Zrotation Xrotation Yrotation
                End Site
                {
                  OFFSET 10 0 0
                }
              }
            }
          }
        }
        JOINT RightShoulder
        {
          OFFSET -8 19.6109 2.86452
          CHANNELS 3 Zrotation Xrotation Yrotation
          JOINT RightArm
          {
            OFFSET -12 1 0.681055
            CHANNELS 3 Zrotation Xrotation Yrotation
            JOINT RightForeArm
            {
              OFFSET -19 0 -1.52608
              CHANNELS 3 Zrotation Xrotation Yrotation
              JOINT RightHand
              {
                OFFSET -23 0 0
                CHANNELS 3 Zrotation Xrotation Yrotation
                End Site
                {
                  OFFSET -10 0 0
                }
              }
            }
          }
        }
      }
    }
  }
  JOINT LeftUpLeg
  {
    OFFSET 9 -7.17245 0
    CHANNELS 3 Zrotation Xrotation Yrotation
    JOINT LeftLeg
    {
      OFFSET 0 -44.1113 0
      CHANNELS 3 Zrotation Xrotation Yrotation
      JOINT LeftFoot
      {
        OFFSET 0 -36.1829 0
        CHANNELS 3 Zrotation Xrotation Yrotation
        JOINT LeftToeBase
        {
          OFFSET 0 -4.84184 13
          CHANNELS 3 Zrotation Xrotation Yrotation
          End Site
          {
            OFFSET 0 1 6
          }
        }
      }
    }
  }
  JOINT RightUpLeg
  {
    OFFSET -9 -7.17245 0
    CHANNELS 3 Zrotation Xrotation Yrotation
    JOINT RightLeg
    {
      OFFSET 0 -44.0551 0
      CHANNELS 3 Zrotation Xrotation Yrotation
      JOINT RightFoot
      {
        OFFSET 0 -36.1469 0
        CHANNELS 3 Zrotation Xrotation Yrotation
        JOINT RightToeBase
        {
          OFFSET 0 -4.92256 13
          CHANNELS 3 Zrotation Xrotation Yrotation
          End Site
          {
            OFFSET 0 1 6
          }
        }
      }
    }
  }
}
MOTION
Frames:	19
Frame Time:	0.0333333
-307.894 89.2041 297.617 -2.36674 -6.78977 -50.7234 0 0 0 -0.130433 17.3248 4.66066 -5.82667 -8.02946 6.19869 12.2744 8.41046 -2.24995 -1.49877 -2.72114 2.58194 -31.7614 4.06356 -7.21793 -33.0893 10.4928 -32.1092 -0.171994 0.0903716 -12.0556 -9.04003 0.429479 -5.42874 23.2472 5.25923 14.1762 48.7673 6.45244 -4.38899 5.47712 -17.4229 10.7804 1.22191 0.0532275 4.98837 2.70636 -1.5462 21.8545 -0.0188213 40.7994 -29.2969 16.1206 -27.7242 4.00296 0.870052 0.51889 -3.71645 -4.44671 -23.3269 0.0175904 -0.0483262 19.4806 1.44416 -14.5295 11.046 1.41242 4.21424 -16.2812 -8.14924 
-306.752 89.9137 296.744 -3.25128 -7.25674 -51.0566 0 0 0 0.823655 17.807 3.88003 -8.27425 -8.46936 5.64752 14.747 9.79413 -2.97027 -2.60536 -2.91054 3.16375 -30.1529 3.50487 -6.15572 -30.6032 11.4784 -30.939 -0.370081 -3.4063 -18.2799 -7.03129 0.557367 -9.0534 25.225 5.45423 13.7386 47.8547 6.32435 -2.95208 4.6227 -13.9833 10.2058 2.92707 0.134593 5.26432 2.74894 -0.63069 21.8673 -0.796206 38.5942 -28.7157 15.0427 -25.3847 3.40649 0.702662 -0.518598 -2.85128 -4.03163 -21.9384 -1.64627 -0.0215478 19.8584 -3.56096 -15.8619 9.48271 1.32402 4.29162 -16.6456 -7.98884 
-305.083 90.7855 295.886 -3.86874 -8.01166 -50.7458 0 0 0 2.41582 18.8677 2.64366 -11.124 -9.18233 4.69314 16.5734 10.936 -3.68616 -3.69665 -2.60513 3.52527 -26.7091 3.34913 -6.6688 -34.6281 7.03235 -26.3708 0.369661 -0.330006 -22.0206 -6.0925 0.434174 -8.14481 26.9596 5.77238 13.823 47.6478 8.39866 -1.87199 5.30554 -14.89 10.9215 0.853248 0.0405115 5.43653 1.39466 0.0410408 17.9131 -2.26604 35.3477 -24.3522 12.215 -22.9405 2.4876 1.08809 0.479986 -4.61048 -4.74352 -20.4116 -6.20115 0.00173091 22.2888 -7.37466 -17.9887 8.26408 1.31029 4.38573 -17.1572 -8.30564 
-303.586 91.6134 294.991 -4.78968 -8.5823 -49.888 0 0 0 2.16365 17.7183 2.07918 -10.0887 -7.3084 3.8374 15.5391 12.4205 -3.14291 -3.13105 -1.99586 3.75214 -25.7989 3.23265 -6.58483 -36.4872 3.59832 -22.7705 0.547569 1.03607 -24.3283 -6.72877 0.397996 -6.76227 26.2418 6.024 14.9476 47.2641 8.73904 -0.841743 3.87055 -8.97331 11.7343 2.66 0.107786 4.64 0.554882 0.929575 13.5816 -3.32266 32.1179 -20.5382 10.5151 -20.5761 1.91384 1.03864 1.31905 -4.50155 -5.38596 -19.0675 -9.47119 2.71016e-007 28.2993 -11.5011 -16.3959 4.07159 0.586818 4.29722 -16.4253 -5.87707 
-302.085 92.3245 294.308 -5.07357 -8.90893 -48.8626 0 0 0 2.58306 15.7254 1.69943 -9.84689 -5.25374 3.34624 14.149 15.2065 -3.13556 -2.55577 -2.75878 3.37979 -25.9478 3.23113 -6.53536 -36.9243 2.76676 -19.0796 -0.434903 -1.01555 -24.7403 -6.76411 0.355922 -6.01719 25.9118 5.68985 14.1088 46.5558 10.6605 1.17713 3.84587 -7.81355 12.0727 3.0656 0.125309 4.68029 -0.875194 1.17314 9.66518 -3.1829 29.0776 -17.5743 9.53629 -18.3207 1.54124 0.837327 2.25927 -3.81833 -6.83695 -17.7533 -12.1554 8.7783e-008 35.8913 -10.1259 -15.9063 0.421777 0.0589256 4.07845 -15.4375 -5.84641 
-300.863 92.9822 293.604 -5.99863 -9.18723 -48.2826 0 0 0 1.22806 14.6555 1.8398 -6.34904 -4.29301 2.68021 11.5258 17.6009 -2.57795 -2.15824 -1.86682 2.97628 -27.4798 3.13793 -5.81909 -36.9438 4.13491 -14.0576 -3.03102 -6.35626 -25.5611 -6.12204 0.294508 -5.5031 23.7452 5.82984 15.7595 46.7199 11.4023 0.79247 3.28928 -6.36818 13.9924 3.29141 0.115736 4.02663 -1.13971 2.42895 8.13267 -3.02239 25.765 -16.7256 9.3316 -15.2542 1.25231 0.908543 1.54007 -4.00755 -7.63507 -15.1863 -13.0524 -4.58963e-007 43.7275 -8.07184 -11.0188 -3.29667 -0.318066 3.44077 -12.6701 -3.44269 
-299.753 93.278 292.8 -6.0835 -9.4928 -47.282 0 0 0 -1.01031 14.0801 2.44249 -2.7549 -4.82469 2.38302 9.04357 19.2078 -2.20751 -1.10325 -0.951406 2.14239 -28.9779 3.02263 -5.10481 -37.5725 6.06096 -9.25931 -3.77515 -7.78679 -25.9668 -6.37079 0.30219 -5.42584 22.3443 4.61472 12.4926 46.6087 13.7061 3.49853 2.78882 -3.74929 13.5225 2.56406 0.0858537 3.83485 -1.63244 2.35025 7.26594 -2.66522 24.2012 -16.7387 8.39484 -13.9635 1.02986 0.735267 2.30782 -3.42812 -8.80325 -11.9003 -14.4978 1.75431e-008 50.0616 -4.38716 -13.5612 -3.79916 -0.451883 4.32661 -16.4971 -5.33224 
-298.671 93.5284 291.782 -6.46304 -9.60408 -46.3742 0 0 0 -0.53098 11.475 2.59921 -2.69672 -2.6097 2.52642 8.54197 20.9441 -2.09926 0.765332 -0.500452 1.73352 -29.2738 3.14802 -5.38735 -38.7171 7.34257 -5.01419 -3.82605 -8.60845 -24.5675 -6.89557 0.33814 -5.60801 22.5446 4.90528 13.3769 45.71 12.712 3.5179 2.51426 -3.68107 13.7971 1.68304 0.073354 4.99087 -1.29393 2.0261 7.1429 -2.64341 23.2541 -17.5177 7.83287 -12.138 0.834092 0.801621 1.52181 -3.57928 -8.97033 -7.58872 -15.1058 -1.6857e-007 54.5513 -3.42883 -15.6069 -4.28337 -0.587279 4.36183 -16.7973 -6.54217 
-297.605 93.7887 290.886 -6.15209 -9.43281 -46.1231 0 0 0 -0.553477 8.072 2.87876 -2.49648 0.482361 2.81892 8.36659 20.7701 -2.26636 1.0088 -0.112307 1.40711 -30.0554 2.84716 -4.36943 -39.1009 10.4737 -1.68488 -4.50957 -11.4468 -23.2331 -7.88623 0.304764 -4.41923 22.2557 5.45401 15.4117 44.4707 11.8974 3.52463 2.83083 -5.6872 14.5743 2.41263 0.0881614 4.18488 -1.58898 1.15318 6.40892 -2.56677 21.9016 -17.5604 7.50117 -10.0859 0.662874 0.621192 1.28321 -2.82159 -9.24902 -3.56754 -14.5341 2.91642e-008 57.0238 -3.42176 -14.8443 -4.78715 -0.623978 4.18396 -15.9883 -6.69712 
-296.49 93.8133 289.65 -6.21375 -8.9815 -46.1025 0 0 0 0.224337 5.9702 3.65779 -2.5205 1.9233 3.63303 7.40022 21.4155 -2.481 2.26368 -0.24939 0.484532 -31.7325 2.81916 -3.94997 -39.8167 13.8815 2.10935 -5.24676 -15.8734 -20.9246 -7.68865 0.298709 -4.44305 20.7857 5.20536 15.4644 44.9176 10.9995 4.4895 2.81646 -5.7625 14.0287 2.03268 0.0846212 4.76724 -0.827147 -0.510328 6.93835 -2.92465 22.3354 -18.0034 7.46077 -9.25838 0.604954 0.611082 1.46247 -2.81071 -8.57461 0.87068 -13.5153 6.40231e-008 56.7213 -1.78093 -17.5391 -2.51076 -0.38738 4.78242 -18.9871 -7.70654 
-295.302 93.6469 288.532 -6.34327 -9.65679 -46.4987 0 0 0 0.783707 3.73212 4.63204 -3.06483 5.06456 4.78065 7.35742 20.0206 -3.06583 1.41978 1.57539 -0.0540267 -33.5019 2.75898 -3.46472 -40.1235 17.107 4.36835 -5.7683 -20.5728 -16.7903 -8.17683 0.336355 -4.70311 19.9722 4.96643 15.1196 43.6237 11.507 6.5564 2.65707 -4.46 13.0709 2.4886 0.0953586 4.3881 -1.52444 -1.13757 6.51761 -2.74662 22.4029 -17.2177 7.49497 -7.93161 0.520343 0.598709 1.1537 -2.70948 -8.9838 6.5238 -12.158 -8.7795e-009 54.2706 1.19556 -18.5297 -3.05061 -0.497749 4.70034 -18.3787 -6.6649 
-293.889 93.4352 286.798 -6.40505 -9.54665 -47.0175 0 0 0 1.49511 4.23938 5.21105 -3.71727 3.94656 5.50316 6.62937 20.6906 -3.43497 2.63241 1.30582 -1.0246 -35.3079 2.65887 -2.91535 -41.0253 14.3889 9.80309 -6.62805 -23.0306 -16.034 -7.46134 0.264591 -4.05616 19.5907 4.97987 15.4192 42.7933 11.8589 7.04995 2.35428 -3.52175 13.3567 3.6442 0.114215 3.58909 -1.08536 -3.10187 7.19964 -2.81094 23.2052 -17.1688 7.11768 -7.19935 0.448341 0.635806 1.8972 -2.97846 -8.53049 10.8079 -10.2568 -9.2548e-008 50.2332 4.86958 -17.3139 -4.8258 -0.735166 4.50869 -17.5487 -7.01005 
-292.059 93.187 283.898 -5.75308 -5.5054 -48.9382 0 0 0 5.21517 2.94873 6.56922 -5.39201 2.70554 7.14667 5.92226 19.9922 -3.51893 3.20576 1.50929 -1.61566 -37.117 2.71461 -2.76819 -40.7755 19.8585 10.3608 -7.65309 -32.7922 -7.75214 -7.27282 0.351731 -5.5302 18.8292 4.77882 15.1658 42.2891 11.1616 9.19167 1.88081 -1.63566 12.729 2.75078 0.0906233 3.77309 3.19277 -9.80097 11.4012 -2.85823 25.8815 -19.1801 6.89902 -6.18486 0.373173 0.473124 1.6147 -2.28812 -4.34531 9.68463 -5.88368 -6.25404e-009 45.0866 5.10603 -17.2458 -4.60759 -0.699085 4.82837 -19.1306 -7.38038 
-290.134 92.9455 281.281 -5.27095 -2.73228 -50.8828 0 0 0 8.92636 3.15692 7.42418 -7.73608 1.06601 8.53364 5.14772 19.3521 -3.26355 3.65347 1.71109 -1.8493 -38.4369 2.7177 -2.58235 -40.0736 8.15397 12.4418 -4.13632 -26.9795 -2.98824 -7.82556 0.298823 -4.36682 18.7038 4.70286 14.957 41.1474 11.1964 11.2757 2.05405 -2.48102 12.8203 3.2038 0.114266 4.08418 6.34331 -14.3145 14.7219 -2.5616 26.5565 -20.3431 5.77471 -4.19845 0.21185 0.396492 2.04735 -2.06528 -1.57913 9.16287 -1.11937 1.05305e-008 39.1959 3.92458 -15.8455 -4.91849 -0.684901 5.52551 -21.8686 -5.8663 
-288.33 92.5857 280.02 -4.9791 -5.62806 -51.2816 0 0 0 9.15342 3.32214 7.01502 -10.3947 3.75029 8.90266 4.36837 18.0707 -2.75406 3.61871 1.9746 -1.72348 -38.4613 2.6781 -2.49037 -41.9561 9.89528 13.1318 -3.10987 -32.6874 2.35004 -10.1574 0.114088 -1.28368 18.9253 4.76595 15.0522 39.6177 10.765 13.4132 1.37516 -0.942889 13.6797 1.41243 0.0593411 4.81131 2.53879 -13.3617 9.66082 -2.91124 24.1564 -15.0479 4.58708 -1.92879 0.0772578 0.336267 2.20755 -1.86036 -5.01946 14.0433 -0.813307 -3.64238e-008 30.9253 6.79591 -19.2791 -4.82263 -0.819584 7.96552 -31.0653 -4.2387 
-286.027 92.1453 278.146 -5.03946 -7.95612 -52.4396 0 0 0 9.57195 6.10318 6.30602 -12.86 4.07475 9.07686 3.27846 16.3917 -1.61708 3.36263 2.14879 -1.03338 -38.293 2.68287 -2.52474 -44.2589 10.5825 14.2562 -2.76575 -35.355 3.60482 -11.1893 -0.0908146 0.927073 19.0321 4.86607 15.3633 38.2359 10.5979 15.5276 0.927658 -0.708278 15.1579 -0.217464 -0.00982882 5.17572 -0.153827 -12.6512 5.8095 -2.82634 21.158 -10.1823 2.62688 1.05957 -0.0242944 0.340843 2.02203 -1.84273 -7.94008 16.4257 -0.96993 -0.0846489 26.85 8.43247 -17.6399 -9.55768 -1.48638 8.486 -32.3879 -3.28285 
-283.58 91.998 275.401 -5.26227 -6.2999 -52.5412 0 0 0 12.5657 8.66828 4.98159 -14.5829 2.00532 8.46055 2.81975 14.6782 -0.858156 2.65641 1.65168 -0.315768 -37.3472 2.79507 -2.91842 -46.2456 9.76438 14.3852 -2.57643 -34.6631 3.66719 -12.1744 -0.052826 0.495351 20.1746 5.06979 15.3682 35.891 11.0889 17.0157 0.713685 -1.18752 17.2857 0.983519 0.041161 4.79282 1.84167 -14.4526 5.9996 -2.9244 17.5832 -10.3336 1.66162 5.21244 -0.0756398 0.38685 1.42133 -1.90853 -6.18128 15.0957 -5.0898 -0.695234 24.2592 11.2183 -19.4113 -13.6548 -2.34623 7.04222 -28.0215 -5.26592 
-281.389 91.9724 272.814 -6.49852 -4.19201 -50.6591 0 0 0 15.8597 10.4964 2.94185 -14.6118 0.790607 6.80408 3.05642 13.2601 -0.665569 0.394952 0.272067 0.486624 -36.4091 2.94659 -3.41997 -47.7461 10.5597 13.1512 -3.3788 -29.2001 2.37296 -10.0794 0.0991127 -1.12385 20.8217 5.10939 15.0978 34.293 11.036 17.5145 0.433773 -1.16967 19.7978 -0.990078 -0.0484008 5.59731 4.50655 -15.0573 6.90699 -3.02971 13.1412 -11.9016 3.35411 9.24218 -0.271185 0.416342 -3.98849 -0.757475 -2.9279 14.6717 -9.37988 0.0658861 20.956 12.5001 -21.9714 -13.4067 -2.61402 6.51384 -26.1171 -5.83313 
-279.272 91.7748 270.146 -7.33543 -2.58645 -48.6253 0 0 0 17.5832 11.7543 1.47065 -13.6075 -0.201223 5.27847 3.54303 11.846 -0.628178 -0.883481 0.632759 0.973562 -35.8935 3.15148 -3.99358 -47.2824 11.3236 9.27366 -3.15059 -22.4273 4.94965 -9.14348 0.32878 -4.10997 21.9106 5.16852 14.6399 33.3612 9.84908 16.3764 -0.47864 0.940062 22.4458 -1.46583 -0.07261 5.67135 6.41485 -15.9066 7.99438 -3.38634 10.9841 -10.378 7.56431 7.03829 -0.465864 0.270757 -3.77342 -0.118227 -0.194556 12.4673 -9.31678 0.869365 20.9509 10.7746 -21.1405 -15.4367 -2.89754 5.43125 -21.3787 -5.61893 
